<?xml version="1.0" encoding="iso-8859-1"?>
<!-- Generator: Adobe Illustrator 19.0.0, SVG Export Plug-In . SVG Version: 6.00 Build 0)  -->
<svg version="1.1" id="Capa_1" xmlns="http://www.w3.org/2000/svg" xmlns:xlink="http://www.w3.org/1999/xlink" x="0px" y="0px"
	 viewBox="0 0 447.216 447.216" style="enable-background:new 0 0 447.216 447.216;" xml:space="preserve">
<path style="fill:#1185E0;" d="M251.82,447.216h-56.424c-19.331,0-35.527-14.106-38.139-33.437l-3.657-21.42l-18.286,13.061
	c-6.792,4.702-14.629,7.837-22.465,7.837c-9.927,0-20.376-4.18-27.167-11.494l-39.706-39.706
	c-13.584-12.539-15.151-34.482-3.657-50.155l12.539-18.286l-22.465-3.657C13.584,287.347,0,271.151,0,251.82v-55.902
	c0-19.331,14.106-35.527,33.437-38.139l21.42-3.657l-13.061-18.286c-11.494-14.629-9.927-36.571,3.657-50.155l39.706-39.706
	c12.539-13.584,34.482-15.151,50.155-3.657L153.6,54.857l3.657-22.465C159.869,13.584,176.065,0,195.396,0h56.424
	c19.331,0,35.527,14.106,38.139,33.437l3.657,20.898l17.763-13.061c14.629-11.494,36.571-9.927,50.155,3.657l39.706,39.706
	c13.584,12.539,15.151,34.482,3.657,50.155l-12.539,18.286l22.465,3.657c18.808,2.612,32.392,18.808,32.392,38.139v56.424
	c0,19.331-14.106,35.527-33.437,38.139l-20.898,3.657l13.584,18.286c11.494,15.151,9.927,36.571-3.657,50.155l-40.751,39.706
	c-7.314,7.314-17.241,11.494-27.167,11.494c-8.882,0-16.718-2.612-23.51-7.837l-17.763-12.539l-3.657,22.465
	C287.347,433.633,271.151,447.216,251.82,447.216z M165.094,349.518c2.09,0,4.18,0.522,5.747,1.045
	c5.224,2.09,8.359,6.792,9.404,12.016l7.837,46.498c0.522,4.18,3.135,6.792,6.792,6.792h56.424c3.657,0,6.269-2.612,6.792-5.747
	l7.837-47.543c1.045-5.224,4.18-9.927,9.404-12.016c5.224-2.09,10.449-1.567,15.151,1.567l38.661,27.167
	c2.09,1.567,3.135,2.09,5.224,2.09s3.657-0.522,5.224-2.09l39.706-39.706c2.09-2.09,2.612-6.792,0.522-9.404l-28.212-38.661
	c-3.135-4.18-4.18-9.927-2.09-15.151c2.09-5.224,6.792-8.882,12.016-9.404l46.498-7.837c4.18-0.522,6.792-3.135,6.792-6.792v-56.947
	c0-3.657-2.612-6.269-5.747-6.792c0,0,0,0-0.522,0l-47.02-7.837c-5.225-1.045-9.927-4.18-12.016-9.404
	c-2.09-5.224-1.567-10.449,1.567-15.151l27.167-38.661c0,0,0-0.522,0.522-0.522c2.09-2.612,2.09-6.792-0.522-8.882l-40.229-40.229
	c-2.09-2.09-6.792-2.612-9.404-0.522l-37.616,27.69c-4.18,3.135-9.927,3.657-15.151,1.567c-5.224-2.09-8.882-6.792-9.404-12.016
	l-7.837-46.498c-0.522-4.18-3.135-6.792-6.792-6.792h-56.947c-3.657,0-6.269,2.612-6.792,5.747l-7.837,47.543
	c-1.045,5.224-4.18,9.927-9.404,12.016c-5.224,2.09-10.449,1.567-15.151-1.567l-38.661-27.167c0,0-0.522,0-0.522-0.522
	c-2.612-2.09-6.792-2.09-8.882,0.522l-40.229,40.229c-2.09,2.09-2.612,6.792-0.522,9.404l28.212,39.184
	c3.135,4.18,3.657,9.927,1.567,15.151c-2.09,5.225-6.792,8.359-12.016,9.404l-46.498,7.837c-4.18,0.522-6.792,3.135-6.792,6.792
	v56.424c0,3.657,2.612,6.269,5.747,6.792l47.543,7.837c5.224,1.045,9.927,4.18,12.016,9.404c2.09,5.224,1.567,10.449-1.567,15.151
	l-27.167,38.661c0,0,0,0.522-0.522,0.522c-2.09,2.612-2.09,6.792,0.522,8.882l40.229,40.229c1.045,1.045,3.657,2.09,5.224,2.09
	c1.567,0,2.612-0.522,4.18-1.567l39.184-27.69C158.825,350.563,161.959,349.518,165.094,349.518z"/>
<path style="fill:#4DCFE0;" d="M223.086,316.604c-51.2,0-92.996-41.796-92.996-92.996s41.796-92.996,92.996-92.996
	s92.996,41.796,92.996,92.996S274.286,316.604,223.086,316.604z M223.086,161.959c-33.959,0-61.649,27.69-61.649,61.649
	s27.69,61.649,61.649,61.649s61.649-27.69,61.649-61.649S257.045,161.959,223.086,161.959z"/>
<g>
</g>
<g>
</g>
<g>
</g>
<g>
</g>
<g>
</g>
<g>
</g>
<g>
</g>
<g>
</g>
<g>
</g>
<g>
</g>
<g>
</g>
<g>
</g>
<g>
</g>
<g>
</g>
<g>
</g>
</svg>
