<?xml version="1.0" encoding="iso-8859-1"?>
<!-- Generator: Adobe Illustrator 19.0.0, SVG Export Plug-In . SVG Version: 6.00 Build 0)  -->
<svg version="1.1" id="Capa_1" xmlns="http://www.w3.org/2000/svg" xmlns:xlink="http://www.w3.org/1999/xlink" x="0px" y="0px"
	 viewBox="0 0 433.633 433.633" style="enable-background:new 0 0 433.633 433.633;" xml:space="preserve">
<path style="fill:#1185E0;" d="M216.816,415.347c-5.224,0-10.449-2.612-13.061-7.314l-48.588-76.278H26.122
	C11.494,331.755,0,320.261,0,305.633V44.408C0,29.78,11.494,18.286,26.122,18.286H407.51c14.629,0,26.122,11.494,26.122,26.122
	v261.224c0,14.629-11.494,26.122-26.122,26.122H278.465L230.4,408.033C227.265,412.735,222.041,415.347,216.816,415.347
	L216.816,415.347z M31.347,300.408h132.18c5.224,0,10.449,2.612,13.061,7.314l40.229,62.694l39.706-62.694
	c2.612-4.702,7.837-7.314,13.061-7.314h132.702V49.633H31.347V300.408z"/>
<g>
	<path style="fill:#4DCFE0;" d="M339.592,122.776H94.041c-8.882,0-15.673-6.792-15.673-15.673s6.792-15.673,15.673-15.673h245.551
		c8.882,0,15.673,6.792,15.673,15.673S348.473,122.776,339.592,122.776z"/>
	<path style="fill:#4DCFE0;" d="M339.592,190.694H94.041c-8.882,0-15.673-6.792-15.673-15.673s6.792-15.673,15.673-15.673h245.551
		c8.882,0,15.673,6.792,15.673,15.673S348.473,190.694,339.592,190.694z"/>
	<path style="fill:#4DCFE0;" d="M240.327,258.612H94.041c-8.882,0-15.673-6.792-15.673-15.673s6.792-15.673,15.673-15.673h146.286
		c8.882,0,15.673,6.792,15.673,15.673S249.208,258.612,240.327,258.612z"/>
</g>
<g>
</g>
<g>
</g>
<g>
</g>
<g>
</g>
<g>
</g>
<g>
</g>
<g>
</g>
<g>
</g>
<g>
</g>
<g>
</g>
<g>
</g>
<g>
</g>
<g>
</g>
<g>
</g>
<g>
</g>
</svg>
