<?xml version="1.0" encoding="iso-8859-1"?>
<!-- Generator: Adobe Illustrator 19.0.0, SVG Export Plug-In . SVG Version: 6.00 Build 0)  -->
<svg version="1.1" id="Capa_1" xmlns="http://www.w3.org/2000/svg" xmlns:xlink="http://www.w3.org/1999/xlink" x="0px" y="0px"
	 viewBox="0 0 435.722 435.722" style="enable-background:new 0 0 435.722 435.722;" xml:space="preserve">
<path style="fill:#1185E0;" d="M402.025,0H33.698C15.935,0,2.351,13.584,2.351,31.347v373.029c0,17.763,13.584,31.347,31.347,31.347
	h368.327c17.763,0,31.347-13.584,31.347-31.347V31.347C433.371,13.584,419.788,0,402.025,0z M33.698,31.347h368.327v98.22H33.698
	V31.347L33.698,31.347z M33.698,404.375V160.914h368.327v243.461H33.698z"/>
<g>
	<circle style="fill:#4DCFE0;" cx="82.808" cy="80.457" r="25.078"/>
	<path style="fill:#4DCFE0;" d="M82.808,108.147c-15.151,0-27.69-12.539-27.69-27.69s12.539-27.69,27.69-27.69
		s27.69,12.539,27.69,27.69S97.959,108.147,82.808,108.147z M82.808,57.992c-12.539,0-22.465,9.927-22.465,22.465
		s9.927,22.465,22.465,22.465s22.465-9.927,22.465-22.465S95.347,57.992,82.808,57.992z"/>
	<circle style="fill:#4DCFE0;" cx="147.592" cy="80.457" r="25.078"/>
	<path style="fill:#4DCFE0;" d="M147.592,108.147c-15.151,0-27.69-12.539-27.69-27.69s12.539-27.69,27.69-27.69
		c15.151,0,27.69,12.539,27.69,27.69S162.743,108.147,147.592,108.147z M147.592,57.992c-12.539,0-22.465,9.927-22.465,22.465
		s9.927,22.465,22.465,22.465s22.465-9.927,22.465-22.465S160.131,57.992,147.592,57.992z"/>
	<path style="fill:#4DCFE0;" d="M341.943,96.131H233.273c-8.882,0-15.673-6.792-15.673-15.673s6.792-15.673,15.673-15.673h108.669
		c8.882,0,15.673,6.792,15.673,15.673S350.824,96.131,341.943,96.131z"/>
</g>
<g>
</g>
<g>
</g>
<g>
</g>
<g>
</g>
<g>
</g>
<g>
</g>
<g>
</g>
<g>
</g>
<g>
</g>
<g>
</g>
<g>
</g>
<g>
</g>
<g>
</g>
<g>
</g>
<g>
</g>
</svg>
