<?xml version="1.0" encoding="iso-8859-1"?>
<!-- Generator: Adobe Illustrator 19.0.0, SVG Export Plug-In . SVG Version: 6.00 Build 0)  -->
<svg version="1.1" id="Capa_1" xmlns="http://www.w3.org/2000/svg" xmlns:xlink="http://www.w3.org/1999/xlink" x="0px" y="0px"
	 viewBox="0 0 456.147 456.147" style="enable-background:new 0 0 456.147 456.147;" xml:space="preserve">
<g>
	<rect x="404.425" y="188.89" style="fill:#4DCFE0;" width="31.347" height="131.135"/>
	<path style="fill:#4DCFE0;" d="M420.098,375.927c-19.853,0-36.049-16.196-36.049-36.049s16.196-36.049,36.049-36.049
		s36.049,16.196,36.049,36.049S439.951,375.927,420.098,375.927z M420.098,335.176c-2.612,0-4.702,2.09-4.702,4.702
		s2.09,4.702,4.702,4.702s4.702-2.09,4.702-4.702S422.711,335.176,420.098,335.176z"/>
</g>
<path style="fill:#1185E0;" d="M428.98,173.217L225.225,81.788c-4.18-2.09-8.882-2.09-13.061,0L9.453,173.217
	c-6.269,2.612-9.927,8.359-9.404,14.629s4.702,12.016,10.449,14.106l67.918,22.988v88.294c0,5.224,2.612,9.927,6.792,13.061
	c4.18,3.135,9.404,3.657,14.629,1.567c77.322-28.735,162.482-28.735,239.804,0c1.567,0.522,3.657,1.045,5.747,1.045
	c3.135,0,6.269-1.045,8.882-2.612c4.18-3.135,6.792-7.837,6.792-13.061v-88.294l66.873-22.988
	c6.269-2.09,10.449-7.837,10.449-14.106S435.249,175.829,428.98,173.217z M329.192,291.29c-71.576-21.943-147.853-21.943-219.429,0
	v-67.396c71.053-24.033,148.376-24.033,219.429,0V291.29z M345.911,196.727c-82.025-29.257-171.363-29.257-253.388,0l-33.959-11.494
	l160.392-72.098l160.914,72.098L345.911,196.727z"/>
<g>
</g>
<g>
</g>
<g>
</g>
<g>
</g>
<g>
</g>
<g>
</g>
<g>
</g>
<g>
</g>
<g>
</g>
<g>
</g>
<g>
</g>
<g>
</g>
<g>
</g>
<g>
</g>
<g>
</g>
</svg>
