<?xml version="1.0" encoding="iso-8859-1"?>
<!-- Generator: Adobe Illustrator 19.0.0, SVG Export Plug-In . SVG Version: 6.00 Build 0)  -->
<svg version="1.1" id="Capa_1" xmlns="http://www.w3.org/2000/svg" xmlns:xlink="http://www.w3.org/1999/xlink" x="0px" y="0px"
	 viewBox="0 0 437.812 437.812" style="enable-background:new 0 0 437.812 437.812;" xml:space="preserve">
<path style="fill:#1185E0;" d="M313.469,94.71c-8.882,0-15.673,6.792-15.673,15.673s6.792,15.673,15.673,15.673
	c51.2,0,92.996,41.796,92.996,92.996s-41.796,92.996-92.996,92.996h-80.98l47.02-54.335c5.747-6.792,4.702-16.718-1.567-21.943
	c-6.792-6.269-16.718-5.225-22.465,1.045l-68.963,80.457l-0.522,0.522c-0.522,0.522-0.522,0.522-1.045,1.045
	c-0.522,0.522-0.522,1.045-0.522,1.567s-0.522,0.522-0.522,1.045s-0.522,1.045-0.522,1.567s0,0.522-0.522,1.045
	c0,1.045-0.522,2.09-0.522,2.612l0,0l0,0c0,1.045,0,2.09,0.522,3.135c0,0.522,0,0.522,0.522,1.045c0,0.522,0.522,1.045,0.522,1.567
	c0,0.522,0.522,0.522,0.522,1.045c0,0.522,0.522,1.045,1.045,1.567c0,0.522,0.522,0.522,0.522,1.045
	c0,0.522,0.522,0.522,0.522,1.045l68.963,80.98c3.135,3.657,7.314,5.224,12.016,5.224c3.657,0,7.314-1.045,10.449-3.657
	c6.792-5.747,7.314-15.673,1.567-21.943l-46.498-53.812h80.457c68.441,0,124.343-55.902,124.343-124.343S381.91,94.71,313.469,94.71
	z"/>
<path style="fill:#4DCFE0;" d="M252.343,118.743c0.522-0.522,0.522-1.045,0.522-1.567c0-0.522,0.522-0.522,0.522-1.045
	c0-0.522,0.522-1.045,0.522-1.567c0-0.522,0-0.522,0.522-1.045c0-1.045,0.522-1.567,0.522-2.612l0,0l0,0c0-1.045,0-2.09-0.522-3.135
	c0-0.522,0-0.522-0.522-1.045c0-0.522-0.522-1.045-0.522-1.567c0-0.522-0.522-0.522-0.522-1.045c0-0.522-0.522-1.045-0.522-1.567
	c0-0.522-0.522-0.522-1.045-1.045c0,0-0.522-0.522-0.522-1.045L182.335,20c-5.747-6.792-15.673-7.314-21.943-1.567
	c-6.792,5.747-7.314,15.673-1.567,21.943l46.498,53.812h-80.98C55.902,94.71,0,150.612,0,219.053s55.902,124.343,124.343,124.343
	c8.882,0,15.673-6.792,15.673-15.673s-6.792-15.673-15.673-15.673c-51.2,0-92.996-41.796-92.996-92.996s41.796-92.996,92.996-92.996
	h80.98l-47.02,54.335c-5.747,6.792-4.702,16.718,1.567,21.943c3.135,2.612,6.792,3.657,10.449,3.657c4.18,0,8.882-2.09,12.016-5.225
	l68.963-80.457l0.522-0.522C251.82,119.265,252.343,119.265,252.343,118.743z"/>
<g>
</g>
<g>
</g>
<g>
</g>
<g>
</g>
<g>
</g>
<g>
</g>
<g>
</g>
<g>
</g>
<g>
</g>
<g>
</g>
<g>
</g>
<g>
</g>
<g>
</g>
<g>
</g>
<g>
</g>
</svg>
