<?xml version="1.0" encoding="iso-8859-1"?>
<!-- Generator: Adobe Illustrator 19.0.0, SVG Export Plug-In . SVG Version: 6.00 Build 0)  -->
<svg version="1.1" id="Capa_1" xmlns="http://www.w3.org/2000/svg" xmlns:xlink="http://www.w3.org/1999/xlink" x="0px" y="0px"
	 viewBox="0 0 381.388 381.388" style="enable-background:new 0 0 381.388 381.388;" xml:space="preserve">
<path style="fill:#4DCFE0;" d="M365.714,370.939H15.673C6.792,370.939,0,364.147,0,355.265V311.38
	c0-70.531,56.424-127.478,125.388-127.478c8.882,0,15.673,6.792,15.673,15.673s-6.792,15.673-15.673,15.673
	c-51.722,0-94.041,43.363-94.041,96.131v28.212h318.694V311.38c0-52.767-42.318-96.131-94.041-96.131
	c-8.882,0-15.673-6.792-15.673-15.673s6.792-15.673,15.673-15.673c68.963,0,125.388,56.947,125.388,127.478v43.886
	C381.388,364.147,374.596,370.939,365.714,370.939z"/>
<path style="fill:#1185E0;" d="M190.694,235.102c-51.722,0-94.041-42.318-94.041-94.041V88.816
	c0-43.363,35.004-78.367,78.367-78.367h31.347c43.363,0,78.367,35.004,78.367,78.367v52.245
	C284.735,192.784,242.416,235.102,190.694,235.102z M175.02,41.796c-26.122,0-47.02,20.898-47.02,47.02v52.245
	c0,34.482,28.212,62.694,62.694,62.694s62.694-28.212,62.694-62.694V88.816c0-26.122-20.898-47.02-47.02-47.02H175.02z"/>
<g>
</g>
<g>
</g>
<g>
</g>
<g>
</g>
<g>
</g>
<g>
</g>
<g>
</g>
<g>
</g>
<g>
</g>
<g>
</g>
<g>
</g>
<g>
</g>
<g>
</g>
<g>
</g>
<g>
</g>
</svg>
